<svg xmlns="http://www.w3.org/2000/svg" width="168.174" height="78.407" viewBox="0 0 168.174 78.407">
  <g id="Group_1605" data-name="Group 1605" transform="translate(17524 21076.531)">
    <rect id="Rectangle_479" data-name="Rectangle 479" width="37.457" height="1.153" transform="translate(-17458.496 -20999.277)" fill="#fff"/>
    <path id="Path_2795" data-name="Path 2795" d="M143.24,229.757a3,3,0,0,0,.364,1.484,2.641,2.641,0,0,0,.992,1.021,2.739,2.739,0,0,0,1.4.366,2.875,2.875,0,0,0,1.613-.443,2.521,2.521,0,0,0,.985-1.25h-.662a1.921,1.921,0,0,1-.738.883,2.35,2.35,0,0,1-2.315.028,2.019,2.019,0,0,1-.778-.831,2.954,2.954,0,0,1,0-2.521,2.017,2.017,0,0,1,.778-.835,2.341,2.341,0,0,1,2.315.032,1.935,1.935,0,0,1,.738.9h.662a2.544,2.544,0,0,0-.98-1.263,2.857,2.857,0,0,0-1.618-.448,2.732,2.732,0,0,0-1.4.367,2.629,2.629,0,0,0-.992,1.024,3.028,3.028,0,0,0-.364,1.489m-3.041,2.823h.565v-5.639H140.2Zm-5.841-1.807,1.113-3.049,1.114,3.049Zm2.888,1.807h.6l-2.049-5.566h-.637l-2.057,5.566h.6l.492-1.339h2.565Zm-8.116.057a2.07,2.07,0,0,0,.985-.218,1.522,1.522,0,0,0,.621-.573,1.448,1.448,0,0,0,.21-.75,1.324,1.324,0,0,0-.234-.823,1.446,1.446,0,0,0-.573-.456,6.757,6.757,0,0,0-.887-.3,6.851,6.851,0,0,1-.755-.242,1.183,1.183,0,0,1-.464-.331.85.85,0,0,1-.186-.573.9.9,0,0,1,.339-.739,1.5,1.5,0,0,1,1.718,0,1.02,1.02,0,0,1,.379.617h.613a1.441,1.441,0,0,0-.553-.988,1.965,1.965,0,0,0-1.263-.383,2.2,2.2,0,0,0-.944.193,1.515,1.515,0,0,0-.637.537,1.38,1.38,0,0,0-.226.778,1.34,1.34,0,0,0,.234.831,1.422,1.422,0,0,0,.565.451,6.541,6.541,0,0,0,.9.3,6.991,6.991,0,0,1,.758.238,1.136,1.136,0,0,1,.46.331.882.882,0,0,1,.185.585.949.949,0,0,1-.335.746,1.567,1.567,0,0,1-1.851-.016,1.13,1.13,0,0,1-.363-.722h-.6a1.423,1.423,0,0,0,.258.775,1.6,1.6,0,0,0,.665.54,2.332,2.332,0,0,0,.98.194m-6.986-.492a2.211,2.211,0,0,1-1.13-.29,2.068,2.068,0,0,1-.79-.835,2.883,2.883,0,0,1,0-2.522,2.07,2.07,0,0,1,.79-.831,2.343,2.343,0,0,1,2.259,0,2.065,2.065,0,0,1,.79.831,2.883,2.883,0,0,1,0,2.522,2.063,2.063,0,0,1-.79.835,2.211,2.211,0,0,1-1.13.29m0,.492a2.811,2.811,0,0,0,1.428-.367,2.618,2.618,0,0,0,1-1.025,3.229,3.229,0,0,0,0-2.977,2.611,2.611,0,0,0-1-1.024,2.944,2.944,0,0,0-2.848,0,2.64,2.64,0,0,0-1,1.024,3.2,3.2,0,0,0,0,2.977,2.647,2.647,0,0,0,1,1.025,2.8,2.8,0,0,0,1.42.367m-5.873-5.623-2.154,4.824-2.154-4.824h-.6v5.566h.564v-4.429l1.985,4.429h.412l1.984-4.445v4.445h.565v-5.566Zm-13.166-.073v.468h1.573v5.171h.565V227.41h1.565v-.468Zm-2.332,0h-.564v4.736l-3.122-4.736h-.565v5.639h.565v-4.744l3.122,4.744h.564Zm-10.092,3.832,1.113-3.049,1.113,3.049Zm2.888,1.807h.6l-2.049-5.566h-.637l-2.057,5.566h.6l.492-1.339h2.565Zm-9.382-5.163h1.129a1.448,1.448,0,0,1,1.017.3,1.122,1.122,0,0,1,.323.859,1.142,1.142,0,0,1-.335.863,1.385,1.385,0,0,1-1,.323H84.187Zm3.114,5.163-1.452-2.4a1.681,1.681,0,0,0,1.037-.561,1.6,1.6,0,0,0,.351-1.044,1.542,1.542,0,0,0-.488-1.186,2.038,2.038,0,0,0-1.432-.451H83.622v5.639h.565v-2.356h1.041l1.4,2.356Zm-10.487-5.639v3.541a2.122,2.122,0,0,0,.568,1.613,2.3,2.3,0,0,0,2.961,0,2.122,2.122,0,0,0,.569-1.613v-3.541h-.565v3.549a1.725,1.725,0,0,1-.392,1.247,1.451,1.451,0,0,1-1.085.4,1.468,1.468,0,0,1-1.093-.4,1.7,1.7,0,0,1-.4-1.242v-3.549ZM71,230.773l1.114-3.049,1.113,3.049Zm2.888,1.807h.6l-2.049-5.566h-.637l-2.057,5.566h.6l.492-1.339h2.565Zm-9.81-5.639v.468h1.573v5.171h.565V227.41h1.565v-.468Zm-3.953,5.7a2.072,2.072,0,0,0,.985-.218,1.531,1.531,0,0,0,.621-.573,1.448,1.448,0,0,0,.21-.75,1.324,1.324,0,0,0-.234-.823,1.441,1.441,0,0,0-.573-.456,6.719,6.719,0,0,0-.887-.3,6.882,6.882,0,0,1-.754-.242,1.186,1.186,0,0,1-.464-.331.853.853,0,0,1-.185-.573.894.894,0,0,1,.339-.739,1.5,1.5,0,0,1,1.718,0,1.015,1.015,0,0,1,.379.617h.614a1.443,1.443,0,0,0-.553-.988,1.967,1.967,0,0,0-1.263-.383,2.2,2.2,0,0,0-.944.193,1.517,1.517,0,0,0-.637.537,1.385,1.385,0,0,0-.226.778,1.335,1.335,0,0,0,.234.831,1.419,1.419,0,0,0,.564.451,6.59,6.59,0,0,0,.9.3,7.044,7.044,0,0,1,.758.238,1.14,1.14,0,0,1,.46.331.882.882,0,0,1,.185.585.949.949,0,0,1-.335.746,1.324,1.324,0,0,1-.908.295,1.309,1.309,0,0,1-.944-.31,1.134,1.134,0,0,1-.364-.722h-.6a1.417,1.417,0,0,0,.258.775,1.6,1.6,0,0,0,.665.54,2.332,2.332,0,0,0,.98.194M55.845,227.4v-.469H52.9v5.648h2.945v-.468h-2.38v-2.138H55.6v-.468H53.465V227.4Zm-8.567.016h1.129a1.449,1.449,0,0,1,1.017.3,1.122,1.122,0,0,1,.323.859,1.145,1.145,0,0,1-.335.863,1.386,1.386,0,0,1-1,.323H47.278Zm3.114,5.163-1.452-2.4a1.681,1.681,0,0,0,1.037-.561,1.6,1.6,0,0,0,.351-1.044,1.542,1.542,0,0,0-.488-1.186,2.038,2.038,0,0,0-1.432-.451H46.713v5.639h.565v-2.356h1.041l1.4,2.356Z" transform="translate(-17537.145 -21251.334)" fill="#fff"/>
    <path id="Path_2796" data-name="Path 2796" d="M167.374,185.577q-.1-.821-.142-1.478a13.912,13.912,0,0,0-2.113-.657,8.907,8.907,0,0,0-1.85-.2,5.552,5.552,0,0,0-1.982.329,4.575,4.575,0,0,0-1.478.888,3.693,3.693,0,0,0-.931,1.316,4.175,4.175,0,0,0-.318,1.634,3.632,3.632,0,0,0,.537,2.095,4.431,4.431,0,0,0,1.336,1.272,8.5,8.5,0,0,0,1.73.811q.93.319,1.73.681a4.447,4.447,0,0,1,1.336.9,2,2,0,0,1,.537,1.48,2.463,2.463,0,0,1-.154.855,1.968,1.968,0,0,1-.46.724,2.232,2.232,0,0,1-.788.494,3.219,3.219,0,0,1-1.161.186,5.009,5.009,0,0,1-1.391-.175,2.917,2.917,0,0,1-1.062-.558,3.673,3.673,0,0,1-.81-.986,7.983,7.983,0,0,1-.635-1.434.727.727,0,0,0-.218-.339.657.657,0,0,0-.395-.1,1.353,1.353,0,0,0-.5.088q.176.854.318,1.763t.208,1.848a10.869,10.869,0,0,0,1.883.676,9.837,9.837,0,0,0,2.584.311,6.3,6.3,0,0,0,2.255-.361,4.462,4.462,0,0,0,1.555-.964,3.68,3.68,0,0,0,.9-1.391,4.735,4.735,0,0,0,.285-1.62,3.588,3.588,0,0,0-.559-2.08,4.7,4.7,0,0,0-1.4-1.336,9.476,9.476,0,0,0-1.817-.876q-.974-.35-1.817-.723a5.392,5.392,0,0,1-1.4-.865,1.653,1.653,0,0,1-.558-1.3,1.784,1.784,0,0,1,.733-1.566,3.033,3.033,0,0,1,1.785-.515,3.718,3.718,0,0,1,2.135.548,3.839,3.839,0,0,1,1.3,1.8.606.606,0,0,0,.175.252.639.639,0,0,0,.438.12,1.306,1.306,0,0,0,.416-.065q-.131-.658-.23-1.478m-21.558-.974a4.158,4.158,0,0,1,1.018.109,1.98,1.98,0,0,1,.745.361,2.559,2.559,0,0,1,.569.657,9.162,9.162,0,0,1,.515.974.371.371,0,0,0,.35.2.821.821,0,0,0,.263-.044c.088-.029.167-.058.241-.088q-.175-.5-.262-.854c-.059-.233-.11-.474-.154-.722a8.119,8.119,0,0,1-.153-.974,2.908,2.908,0,0,0-.109-.646.372.372,0,0,0-.351-.2q-.263,0-.974.065t-1.7.065h-4.489q-.526,0-1.248-.022t-1.664-.088a.557.557,0,0,0-.044.208v.208c0,.219.073.351.219.394q.459.088.755.165a2.217,2.217,0,0,1,.481.175.538.538,0,0,1,.252.241.865.865,0,0,1,.065.361v10.97a.625.625,0,0,1-.361.614,5.1,5.1,0,0,1-1.193.328c-.147.014-.219.132-.219.35v.208a.514.514,0,0,0,.044.23q.656-.044,1.478-.077t1.456-.033h4.971q.285,0,.679.022c.263.014.522.025.778.032s.492.019.711.033.387.022.5.022a.355.355,0,0,0,.351-.175c.014-.044.04-.132.076-.263s.073-.281.11-.448.073-.343.109-.526.069-.346.1-.492a3.787,3.787,0,0,0,.132-.46,2.772,2.772,0,0,1,.175-.526c.029-.1.062-.2.1-.306s.069-.211.1-.328l-.307-.132a.689.689,0,0,0-.262-.066c-.161,0-.263.052-.307.154q-.263.525-.525.952a3.406,3.406,0,0,1-.614.744,2.562,2.562,0,0,1-.8.493,3.046,3.046,0,0,1-1.106.175H145.4a8.32,8.32,0,0,1-1.927-.154q-.569-.152-.569-.613v-4.905h3.087a.567.567,0,0,1,.537.3,3.888,3.888,0,0,1,.3,1.128c.014.2.154.307.416.307.044,0,.113,0,.208-.011a.433.433,0,0,0,.208-.055q-.066-.678-.088-1.215t-.022-.931c0-.307.011-.682.033-1.128s.047-.836.076-1.172a.958.958,0,0,0-.208-.032c-.1-.007-.165-.011-.208-.011a.635.635,0,0,0-.285.055.271.271,0,0,0-.132.23,4.488,4.488,0,0,1-.262,1.105.569.569,0,0,1-.57.34H142.9V184.6ZM121.138,190.3V184.6h.657a2.889,2.889,0,0,1,2.321.788,3.251,3.251,0,0,1,.657,2.146,3.664,3.664,0,0,1-.208,1.336,2.008,2.008,0,0,1-.6.843,2.353,2.353,0,0,1-.942.449,5.261,5.261,0,0,1-1.226.132Zm4.335,6.109a5,5,0,0,0,.9,1.018,1.438,1.438,0,0,0,.92.384q.306,0,.777.011c.314.007.627.018.942.033s.617.025.908.032.518.019.679.033a.6.6,0,0,0,.044-.219v-.2a.429.429,0,0,0-.066-.274.3.3,0,0,0-.175-.1,6.394,6.394,0,0,1-.953-.328,2.142,2.142,0,0,1-.909-.788L125.1,191a4.319,4.319,0,0,0,1.96-1.434,3.454,3.454,0,0,0,.711-2.113,3.721,3.721,0,0,0-.339-1.6,3.549,3.549,0,0,0-.986-1.248,4.6,4.6,0,0,0-1.565-.81,7.035,7.035,0,0,0-2.08-.285h-3.307q-.635,0-1.434-.032t-1.413-.077a.309.309,0,0,0-.044.175v.2a.53.53,0,0,0,.066.307.388.388,0,0,0,.175.131,3.34,3.34,0,0,1,1.216.307.692.692,0,0,1,.317.635v10.97a1.013,1.013,0,0,1-.055.361.5.5,0,0,1-.208.241,1.591,1.591,0,0,1-.438.175q-.285.078-.744.165c-.161.029-.241.167-.241.416v.175a.434.434,0,0,0,.044.2q.635-.044,1.368-.077t1.522-.033q1.117,0,2.07.033t1.587.077a2.009,2.009,0,0,0,.044-.395q0-.393-.307-.438a5.1,5.1,0,0,1-1.456-.34.728.728,0,0,1-.427-.711v-4.577h.941ZM101.517,178.8a2.25,2.25,0,0,0-1.041.657,1.275,1.275,0,0,0-.339.788.765.765,0,0,0,.142.46.8.8,0,0,0,.449.285q.482.131.876.252t.766.252q.372.132.8.307t.974.394a.915.915,0,0,0,.262-.285.544.544,0,0,0,.066-.241.383.383,0,0,0-.11-.285Zm2.672,5.8a4.158,4.158,0,0,1,1.018.109,1.98,1.98,0,0,1,.745.361,2.559,2.559,0,0,1,.569.657,9.162,9.162,0,0,1,.515.974.371.371,0,0,0,.35.2.821.821,0,0,0,.263-.044c.088-.029.167-.058.241-.088q-.175-.5-.262-.854c-.059-.233-.11-.474-.154-.722a8.117,8.117,0,0,1-.153-.974,2.909,2.909,0,0,0-.109-.646.372.372,0,0,0-.351-.2q-.263,0-.974.065t-1.7.065H99.7q-.526,0-1.248-.022t-1.664-.088a.557.557,0,0,0-.044.208v.208c0,.219.073.351.219.394q.459.088.755.165a2.217,2.217,0,0,1,.481.175.538.538,0,0,1,.252.241.865.865,0,0,1,.065.361v10.97a.625.625,0,0,1-.361.614,5.1,5.1,0,0,1-1.193.328c-.147.014-.219.132-.219.35v.208a.514.514,0,0,0,.044.23q.656-.044,1.478-.077t1.456-.033h4.971q.285,0,.679.022c.263.014.522.025.778.032s.492.019.711.033.387.022.5.022a.355.355,0,0,0,.351-.175c.014-.044.04-.132.076-.263s.073-.281.11-.448.073-.343.109-.526.069-.346.1-.492a3.781,3.781,0,0,0,.132-.46,2.773,2.773,0,0,1,.175-.526c.029-.1.062-.2.1-.306s.069-.211.1-.328l-.307-.132a.689.689,0,0,0-.262-.066c-.161,0-.263.052-.307.154q-.263.525-.525.952a3.406,3.406,0,0,1-.614.744,2.562,2.562,0,0,1-.8.493,3.046,3.046,0,0,1-1.106.175h-.919a8.32,8.32,0,0,1-1.927-.154q-.569-.152-.569-.613v-4.905h3.087a.568.568,0,0,1,.537.3,3.887,3.887,0,0,1,.3,1.128c.014.2.154.307.416.307.044,0,.113,0,.208-.011a.433.433,0,0,0,.208-.055q-.066-.678-.088-1.215t-.022-.931c0-.307.011-.682.033-1.128s.047-.836.076-1.172a.958.958,0,0,0-.208-.032c-.1-.007-.165-.011-.208-.011a.633.633,0,0,0-.285.055.271.271,0,0,0-.132.23,4.489,4.489,0,0,1-.262,1.105.569.569,0,0,1-.57.34h-3.087V184.6Zm-17.343.548a1.625,1.625,0,0,1,.033-.361.441.441,0,0,1,.175-.252,1.228,1.228,0,0,1,.416-.186,5.961,5.961,0,0,1,.734-.143q.219-.065.219-.372c0-.043,0-.109-.011-.2a2.351,2.351,0,0,0-.033-.241q-.7.044-1.5.077t-1.413.032q-.635,0-1.424-.032t-1.489-.077a.638.638,0,0,0-.044.241v.2q0,.307.219.372a5.96,5.96,0,0,1,.734.143,1.1,1.1,0,0,1,.405.186.532.532,0,0,1,.175.252,1.244,1.244,0,0,1,.044.361v10.97a1.241,1.241,0,0,1-.044.361.534.534,0,0,1-.175.252,1.1,1.1,0,0,1-.405.186,5.977,5.977,0,0,1-.734.142q-.219.022-.219.372v.2a.486.486,0,0,0,.044.219q.7-.044,1.489-.077t1.424-.033q.613,0,1.413.033t1.5.077a1.522,1.522,0,0,0,.033-.219c.007-.088.011-.153.011-.2,0-.219-.073-.343-.219-.372a5.977,5.977,0,0,1-.734-.142,1.228,1.228,0,0,1-.416-.186.442.442,0,0,1-.175-.252,1.621,1.621,0,0,1-.033-.361Zm-22.686-1.38a.794.794,0,0,0-.351-.208,3.878,3.878,0,0,0-.832-.055c-.2,0-.471,0-.8-.011s-.653-.018-.974-.033q-.285-.022-.569-.032c-.19-.007-.387-.019-.591-.033l-.022.175a.39.39,0,0,0-.022.12v.1q0,.35.263.415a2.4,2.4,0,0,1,1.04.3.651.651,0,0,1,.23.536v11.08a.717.717,0,0,1-.263.614,2.667,2.667,0,0,1-1.051.328.325.325,0,0,0-.186.109.467.467,0,0,0-.077.307v.175a.434.434,0,0,0,.044.2q.482-.044,1.062-.077t1.215-.033q.635,0,1.117.033t1.029.077a1.928,1.928,0,0,0,.044-.372.466.466,0,0,0-.076-.318.359.359,0,0,0-.186-.1q-.46-.087-.734-.165a1.4,1.4,0,0,1-.416-.175.4.4,0,0,1-.175-.241,1.665,1.665,0,0,1-.033-.361v-9.46l8.628,10.95a1.083,1.083,0,0,0,.372.317.827.827,0,0,0,.329.077c.043,0,.134,0,.273-.011a1.864,1.864,0,0,0,.3-.033V185.15a.743.743,0,0,1,.263-.635,2.346,2.346,0,0,1,.985-.307c.175-.029.262-.167.262-.415,0-.044,0-.1-.011-.175s-.019-.146-.032-.219q-.5.066-1.008.088t-1.2.022c-.468,0-.876-.007-1.227-.022s-.708-.044-1.073-.088a.582.582,0,0,0-.044.219v.175a.368.368,0,0,0,.285.415,3.279,3.279,0,0,1,1.161.307.727.727,0,0,1,.329.679v7.773Zm-13.347,1.807q-.1-.821-.142-1.478a13.912,13.912,0,0,0-2.113-.657,8.907,8.907,0,0,0-1.85-.2,5.552,5.552,0,0,0-1.982.329,4.575,4.575,0,0,0-1.478.888,3.693,3.693,0,0,0-.931,1.316A4.175,4.175,0,0,0,42,187.413a3.632,3.632,0,0,0,.537,2.095,4.431,4.431,0,0,0,1.336,1.272,8.5,8.5,0,0,0,1.73.811q.93.319,1.73.681a4.447,4.447,0,0,1,1.336.9,2,2,0,0,1,.537,1.48,2.463,2.463,0,0,1-.154.855,1.968,1.968,0,0,1-.46.724,2.232,2.232,0,0,1-.788.494,3.219,3.219,0,0,1-1.161.186,5.009,5.009,0,0,1-1.391-.175,2.917,2.917,0,0,1-1.062-.558,3.672,3.672,0,0,1-.81-.986,7.983,7.983,0,0,1-.635-1.434.727.727,0,0,0-.218-.339.657.657,0,0,0-.395-.1,1.353,1.353,0,0,0-.5.088q.176.854.318,1.763t.208,1.848a10.868,10.868,0,0,0,1.883.676A9.837,9.837,0,0,0,46.62,198a6.305,6.305,0,0,0,2.256-.361,4.465,4.465,0,0,0,1.554-.964,3.671,3.671,0,0,0,.9-1.391,4.734,4.734,0,0,0,.285-1.62,3.588,3.588,0,0,0-.558-2.08,4.711,4.711,0,0,0-1.4-1.336,9.475,9.475,0,0,0-1.817-.876q-.974-.35-1.817-.723a5.391,5.391,0,0,1-1.4-.865,1.653,1.653,0,0,1-.558-1.3,1.784,1.784,0,0,1,.733-1.566,3.033,3.033,0,0,1,1.785-.515,3.718,3.718,0,0,1,2.135.548,3.839,3.839,0,0,1,1.3,1.8.613.613,0,0,0,.175.252.64.64,0,0,0,.438.12,1.306,1.306,0,0,0,.416-.065q-.132-.658-.23-1.478M29.256,184.6a4.168,4.168,0,0,1,1.018.109,1.982,1.982,0,0,1,.744.361,2.559,2.559,0,0,1,.569.657,9.164,9.164,0,0,1,.515.974.371.371,0,0,0,.351.2.82.82,0,0,0,.262-.044c.088-.029.167-.058.241-.088q-.175-.5-.262-.854c-.059-.233-.11-.474-.154-.722a8.265,8.265,0,0,1-.153-.974,2.909,2.909,0,0,0-.109-.646.372.372,0,0,0-.351-.2q-.263,0-.974.065t-1.7.065H24.766q-.526,0-1.248-.022t-1.664-.088a.557.557,0,0,0-.044.208v.208c0,.219.073.351.219.394q.459.088.755.165a2.217,2.217,0,0,1,.481.175.538.538,0,0,1,.252.241.865.865,0,0,1,.065.361v10.97a.625.625,0,0,1-.361.614,5.1,5.1,0,0,1-1.193.328c-.147.014-.219.132-.219.35v.208a.514.514,0,0,0,.044.23q.656-.044,1.478-.077t1.456-.033h4.971q.285,0,.679.022c.263.014.522.025.778.032s.492.019.711.033.387.022.5.022a.355.355,0,0,0,.351-.175c.014-.044.04-.132.076-.263s.073-.281.11-.448.073-.343.109-.526.069-.346.1-.492a3.782,3.782,0,0,0,.132-.46,2.773,2.773,0,0,1,.175-.526c.029-.1.062-.2.1-.306s.069-.211.1-.328l-.307-.132a.689.689,0,0,0-.262-.066c-.161,0-.263.052-.307.154q-.263.525-.525.952a3.406,3.406,0,0,1-.614.744,2.562,2.562,0,0,1-.8.493,3.046,3.046,0,0,1-1.106.175h-.919a8.32,8.32,0,0,1-1.927-.154q-.569-.152-.569-.613v-4.905H29.43a.567.567,0,0,1,.537.3,3.888,3.888,0,0,1,.3,1.128c.014.2.154.307.416.307.044,0,.113,0,.208-.011a.434.434,0,0,0,.208-.055q-.066-.678-.088-1.215t-.022-.931c0-.307.011-.682.033-1.128s.047-.836.076-1.172a.958.958,0,0,0-.208-.032c-.1-.007-.165-.011-.208-.011a.635.635,0,0,0-.285.055.271.271,0,0,0-.132.23A4.456,4.456,0,0,1,30,189.54a.569.569,0,0,1-.57.34H26.343V184.6Zm-18.876,0a3.775,3.775,0,0,1,1.018.121,2.09,2.09,0,0,1,.744.372,2.522,2.522,0,0,1,.569.657,8.9,8.9,0,0,1,.515.974.372.372,0,0,0,.351.2.939.939,0,0,0,.3-.055c.11-.037.2-.069.274-.1-.117-.351-.208-.66-.274-.931s-.12-.537-.164-.8a6.9,6.9,0,0,1-.142-.9,2.342,2.342,0,0,0-.1-.569.372.372,0,0,0-.351-.2q-.263,0-.974.065t-1.7.065H3.7q-1.008,0-1.719-.065t-.953-.065a.344.344,0,0,0-.35.2,2.6,2.6,0,0,0-.11.569q-.044.395-.131.9-.066.395-.175.8T0,186.771a1.845,1.845,0,0,0,.263.1,1.042,1.042,0,0,0,.306.055.327.327,0,0,0,.329-.2,8.9,8.9,0,0,1,.515-.974,2.508,2.508,0,0,1,.569-.657,2.084,2.084,0,0,1,.744-.372,3.866,3.866,0,0,1,1.04-.121H5.694v11.518a.8.8,0,0,1-.208.624,2.194,2.194,0,0,1-1.018.3q-.24.044-.3.142a.516.516,0,0,0-.055.252c0,.044,0,.109.011.2a.6.6,0,0,0,.055.219q.7-.044,1.478-.077t1.413-.033q.612,0,1.412.033t1.5.077a1.428,1.428,0,0,0,.033-.219c.007-.088.011-.153.011-.2a.354.354,0,0,0-.328-.372,4.623,4.623,0,0,1-.678-.142,1.1,1.1,0,0,1-.372-.186.463.463,0,0,1-.165-.252,1.665,1.665,0,0,1-.033-.361V184.6Z" transform="translate(-17524 -21237.807)" fill="#fff"/>
    <path id="Path_2797" data-name="Path 2797" d="M146.42,157.97q-.052-.432-.075-.778a7.34,7.34,0,0,0-1.112-.346,4.7,4.7,0,0,0-.974-.1,2.919,2.919,0,0,0-1.043.173,2.4,2.4,0,0,0-.778.467,1.945,1.945,0,0,0-.49.693,2.2,2.2,0,0,0-.167.86,1.907,1.907,0,0,0,.282,1.1,2.323,2.323,0,0,0,.7.67,4.461,4.461,0,0,0,.91.427q.489.167.91.358a2.36,2.36,0,0,1,.7.473,1.055,1.055,0,0,1,.282.78,1.288,1.288,0,0,1-.081.45,1.036,1.036,0,0,1-.242.381,1.179,1.179,0,0,1-.415.26,1.7,1.7,0,0,1-.611.1,2.618,2.618,0,0,1-.732-.092,1.529,1.529,0,0,1-.559-.294,1.933,1.933,0,0,1-.426-.519,4.232,4.232,0,0,1-.334-.755.38.38,0,0,0-.115-.179.347.347,0,0,0-.208-.052.721.721,0,0,0-.265.046q.092.449.167.928t.109.973a5.7,5.7,0,0,0,.991.356,5.167,5.167,0,0,0,1.36.164,3.309,3.309,0,0,0,1.187-.19,2.347,2.347,0,0,0,.818-.507,1.943,1.943,0,0,0,.473-.732,2.487,2.487,0,0,0,.149-.852,1.888,1.888,0,0,0-.294-1.1,2.475,2.475,0,0,0-.737-.7,5,5,0,0,0-.956-.461q-.513-.184-.956-.38a2.84,2.84,0,0,1-.738-.456.87.87,0,0,1-.294-.686.939.939,0,0,1,.387-.824,1.594,1.594,0,0,1,.939-.27,1.956,1.956,0,0,1,1.123.287,2.028,2.028,0,0,1,.686.946.319.319,0,0,0,.092.132.337.337,0,0,0,.231.063.688.688,0,0,0,.218-.035q-.069-.346-.121-.778m-9.733-.513a2.2,2.2,0,0,1,.536.057,1.043,1.043,0,0,1,.392.19,1.332,1.332,0,0,1,.3.346,4.725,4.725,0,0,1,.271.513.2.2,0,0,0,.184.1.442.442,0,0,0,.139-.023c.046-.015.088-.031.126-.046q-.092-.265-.138-.45t-.08-.38a4.309,4.309,0,0,1-.081-.513,1.51,1.51,0,0,0-.057-.34.2.2,0,0,0-.184-.1q-.139,0-.513.035t-.893.035h-2.363q-.276,0-.657-.012t-.876-.046a.3.3,0,0,0-.023.109v.11c0,.115.038.184.115.207.162.031.294.06.4.087a1.183,1.183,0,0,1,.254.092.287.287,0,0,1,.132.126.458.458,0,0,1,.035.19v5.774a.328.328,0,0,1-.19.323,2.654,2.654,0,0,1-.628.173c-.077.007-.115.069-.115.184v.11a.276.276,0,0,0,.023.121c.231-.016.49-.029.778-.04s.543-.017.766-.017h2.616c.1,0,.219,0,.357.011s.275.013.409.017.259.009.375.017.2.011.264.011a.186.186,0,0,0,.185-.092c.008-.023.021-.07.04-.139s.039-.148.057-.236.039-.18.058-.277.036-.182.052-.259a2.006,2.006,0,0,0,.069-.242,1.489,1.489,0,0,1,.092-.277q.024-.081.052-.162c.019-.053.037-.111.052-.172l-.162-.069a.353.353,0,0,0-.138-.035c-.085,0-.139.027-.162.081-.092.184-.185.351-.277.5a1.783,1.783,0,0,1-.323.392,1.345,1.345,0,0,1-.42.259,1.6,1.6,0,0,1-.582.093h-.484a4.436,4.436,0,0,1-1.014-.08q-.3-.081-.3-.323V160.81h1.625a.3.3,0,0,1,.282.155,2.045,2.045,0,0,1,.156.594c.007.108.08.162.218.162.023,0,.06,0,.11-.006a.236.236,0,0,0,.109-.029c-.023-.238-.039-.451-.046-.64s-.012-.351-.012-.49c0-.161.006-.359.017-.594s.025-.44.04-.617a.569.569,0,0,0-.109-.017c-.05,0-.087-.006-.11-.006a.342.342,0,0,0-.149.029.142.142,0,0,0-.069.121,2.336,2.336,0,0,1-.139.581.3.3,0,0,1-.3.179h-1.625v-2.777Zm-9,5.543a2.809,2.809,0,0,1-2.207.8,4.249,4.249,0,0,1-.5-.023,1.055,1.055,0,0,1-.288-.07.248.248,0,0,1-.139-.126.5.5,0,0,1-.035-.2v-5.924h.714a4.424,4.424,0,0,1,1.355.19,2.361,2.361,0,0,1,.991.6,2.644,2.644,0,0,1,.605,1.055,5.064,5.064,0,0,1,.208,1.544,3.12,3.12,0,0,1-.709,2.155m2.04-3.826a3.374,3.374,0,0,0-.76-1.187,3.631,3.631,0,0,0-1.245-.807,4.587,4.587,0,0,0-1.723-.3H123.33c-.108,0-.215,0-.323-.012s-.225-.014-.351-.017-.271-.014-.433-.029a.312.312,0,0,0-.023.115v.093a.368.368,0,0,0,.023.144.158.158,0,0,0,.116.075,1.823,1.823,0,0,1,.571.167.35.35,0,0,1,.167.328v5.774a.347.347,0,0,1-.2.34,2.065,2.065,0,0,1-.536.156.178.178,0,0,0-.1.052.241.241,0,0,0-.041.167v.093a.233.233,0,0,0,.023.1c.239-.016.49-.029.755-.04s.5-.017.7-.017h2.363a4.4,4.4,0,0,0,1.775-.328,3.562,3.562,0,0,0,1.233-.864,3.47,3.47,0,0,0,.714-1.2,4.109,4.109,0,0,0,.231-1.349,4.033,4.033,0,0,0-.259-1.452m-15.368-1.429a.381.381,0,0,1,.161-.34,1.39,1.39,0,0,1,.588-.156c.092-.023.139-.1.139-.218,0-.024,0-.054-.006-.093s-.01-.077-.017-.115q-.277.034-.565.046c-.193.008-.411.012-.657.012q-.323,0-.606-.012t-.617-.046c-.007.038-.013.077-.017.115s-.006.069-.006.093c0,.123.047.2.139.218a1.641,1.641,0,0,1,.611.162.368.368,0,0,1,.161.334v3.538a3.047,3.047,0,0,1-.466,1.9,1.905,1.905,0,0,1-1.573.582,1.748,1.748,0,0,1-1.527-.622,3.121,3.121,0,0,1-.444-1.821v-3.573a.363.363,0,0,1,.167-.334,1.761,1.761,0,0,1,.64-.162c.084-.015.126-.088.126-.218a.843.843,0,0,0-.006-.093,1.056,1.056,0,0,0-.017-.115q-.346.023-.783.04t-.841.017q-.518,0-.893-.017c-.25-.011-.486-.025-.709-.04a.3.3,0,0,0-.024.115v.093c0,.13.042.2.127.218a1.646,1.646,0,0,1,.611.156.374.374,0,0,1,.149.34v3.826a5.443,5.443,0,0,0,.116,1.147,2.09,2.09,0,0,0,.455.933,2.268,2.268,0,0,0,.968.628,4.9,4.9,0,0,0,1.654.231,4.045,4.045,0,0,0,1.435-.219,2.214,2.214,0,0,0,.91-.617,2.291,2.291,0,0,0,.478-.945,4.884,4.884,0,0,0,.139-1.2ZM100.43,161.26l1-2.593.979,2.593Zm2.812,2.225a.568.568,0,0,1,.034.172.241.241,0,0,1-.144.225,1.727,1.727,0,0,1-.444.133.159.159,0,0,0-.086.063.247.247,0,0,0-.04.155v.093a.224.224,0,0,0,.023.1c.108-.008.24-.014.4-.017s.317-.01.479-.017.318-.014.472-.017.285-.006.392-.006q.31,0,.668.017c.238.012.48.024.726.04a1.035,1.035,0,0,0,.023-.208.206.206,0,0,0-.172-.231,1.67,1.67,0,0,1-.427-.121.475.475,0,0,1-.265-.259l-2.777-6.846c-.046-.008-.088-.014-.126-.017a1.034,1.034,0,0,0-.116-.006.3.3,0,0,0-.276.2L98.8,163.576a.568.568,0,0,1-.247.277,2.059,2.059,0,0,1-.513.149c-.1.008-.15.085-.15.231v.093a.233.233,0,0,0,.023.1c.208-.023.4-.039.565-.046s.331-.011.484-.011q.334,0,.68.017c.231.012.45.024.657.04a.992.992,0,0,0,.023-.2c0-.13-.053-.2-.161-.218a1.4,1.4,0,0,1-.49-.139.242.242,0,0,1-.121-.208.662.662,0,0,1,.011-.1.347.347,0,0,1,.046-.126l.6-1.6h2.42Zm-9.854-6.028a2.193,2.193,0,0,1,.535.057,1.041,1.041,0,0,1,.392.19,1.332,1.332,0,0,1,.3.346,4.857,4.857,0,0,1,.271.513.194.194,0,0,0,.184.1.449.449,0,0,0,.139-.023c.046-.015.088-.031.126-.046q-.093-.265-.138-.45t-.081-.38a4.3,4.3,0,0,1-.08-.513,1.51,1.51,0,0,0-.057-.34.2.2,0,0,0-.185-.1q-.138,0-.512.035t-.893.035H91.025c-.185,0-.4,0-.657-.012s-.546-.023-.876-.046a.284.284,0,0,0-.023.109v.11c0,.115.038.184.115.207q.243.046.4.087a1.169,1.169,0,0,1,.254.092.285.285,0,0,1,.133.126.458.458,0,0,1,.034.19v5.774a.328.328,0,0,1-.19.323,2.664,2.664,0,0,1-.628.173c-.077.007-.115.069-.115.184v.11a.266.266,0,0,0,.023.121c.231-.016.489-.029.778-.04s.544-.017.767-.017h2.616c.1,0,.218,0,.357.011s.275.013.409.017.259.009.374.017.2.011.265.011a.187.187,0,0,0,.185-.092c.007-.023.021-.07.04-.139s.038-.148.057-.236.038-.18.057-.277.037-.182.052-.259a1.864,1.864,0,0,0,.07-.242,1.437,1.437,0,0,1,.092-.277q.023-.081.052-.162a1.689,1.689,0,0,0,.052-.172l-.161-.069a.354.354,0,0,0-.139-.035c-.084,0-.138.027-.161.081-.093.184-.185.351-.277.5a1.782,1.782,0,0,1-.323.392,1.348,1.348,0,0,1-.421.259,1.6,1.6,0,0,1-.581.093h-.484a4.436,4.436,0,0,1-1.014-.08c-.2-.054-.3-.162-.3-.323V160.81H93.48a.3.3,0,0,1,.282.155,2.052,2.052,0,0,1,.155.594c.008.108.081.162.219.162.023,0,.06,0,.109-.006a.237.237,0,0,0,.11-.029c-.023-.238-.039-.451-.046-.64s-.011-.351-.011-.49c0-.161.006-.359.017-.594s.024-.44.04-.617a.568.568,0,0,0-.11-.017c-.05,0-.086-.006-.109-.006a.34.34,0,0,0-.149.029.144.144,0,0,0-.07.121,2.312,2.312,0,0,1-.138.581.3.3,0,0,1-.3.179H91.855v-2.777Zm-8.322,0a1.984,1.984,0,0,1,.536.063,1.113,1.113,0,0,1,.392.2,1.343,1.343,0,0,1,.3.346,4.724,4.724,0,0,1,.271.513.2.2,0,0,0,.185.1.5.5,0,0,0,.156-.029c.057-.019.1-.037.144-.052-.062-.185-.109-.348-.144-.49s-.064-.282-.087-.42a3.747,3.747,0,0,1-.075-.473,1.233,1.233,0,0,0-.052-.3.2.2,0,0,0-.185-.1q-.138,0-.512.035t-.893.035h-3.55q-.53,0-.9-.035c-.25-.023-.417-.035-.5-.035a.181.181,0,0,0-.184.1,1.4,1.4,0,0,0-.058.3q-.023.208-.069.473-.034.207-.092.42t-.139.49a1.054,1.054,0,0,0,.139.052.541.541,0,0,0,.161.029.172.172,0,0,0,.173-.1,4.724,4.724,0,0,1,.271-.513,1.332,1.332,0,0,1,.3-.346,1.11,1.11,0,0,1,.392-.2,2.041,2.041,0,0,1,.548-.063H82.6v6.062a.424.424,0,0,1-.109.328,1.156,1.156,0,0,1-.536.155q-.127.024-.155.075a.269.269,0,0,0-.029.132c0,.023,0,.057.006.1a.3.3,0,0,0,.029.115c.246-.016.505-.029.778-.04s.52-.017.744-.017.463.006.743.017.543.024.79.04a.88.88,0,0,0,.017-.115c0-.047.006-.081.006-.1a.186.186,0,0,0-.173-.2,2.455,2.455,0,0,1-.357-.075.574.574,0,0,1-.2-.1.242.242,0,0,1-.086-.132.873.873,0,0,1-.017-.19v-6.062Zm-10.707-2.72a1.29,1.29,0,0,0-.357-.254,1.255,1.255,0,0,0-.473-.069l-1.256,1.394a.209.209,0,0,0-.034.1.229.229,0,0,0,.063.144.536.536,0,0,0,.19.133q.334-.243.64-.438t.64-.38q.346.172.692.38t.714.438a.477.477,0,0,0,.2-.133.239.239,0,0,0,.057-.144.143.143,0,0,0-.034-.1Zm-2.075,6.523,1-2.593.979,2.593Zm2.813,2.225a.568.568,0,0,1,.034.172.24.24,0,0,1-.144.225,1.72,1.72,0,0,1-.443.133.159.159,0,0,0-.086.063.247.247,0,0,0-.041.155v.093a.233.233,0,0,0,.023.1c.108-.008.241-.014.4-.017s.317-.01.478-.017.319-.014.473-.017.284-.006.392-.006q.312,0,.668.017c.239.012.48.024.727.04a1.09,1.09,0,0,0,.023-.208.206.206,0,0,0-.173-.231A1.665,1.665,0,0,1,77,163.87a.473.473,0,0,1-.265-.259l-2.777-6.846q-.069-.012-.127-.017a1.022,1.022,0,0,0-.115-.006.3.3,0,0,0-.277.2l-2.777,6.639a.569.569,0,0,1-.248.277A2.042,2.042,0,0,1,69.9,164c-.1.008-.15.085-.15.231v.093a.233.233,0,0,0,.023.1c.208-.023.4-.039.565-.046s.331-.011.484-.011q.334,0,.68.017c.231.012.449.024.657.04a1.05,1.05,0,0,0,.023-.2c0-.13-.054-.2-.162-.218a1.384,1.384,0,0,1-.489-.139.242.242,0,0,1-.121-.208.683.683,0,0,1,.012-.1.347.347,0,0,1,.046-.126l.6-1.6h2.42Zm-8.529-5.74a.874.874,0,0,1,.017-.19.231.231,0,0,1,.092-.132.653.653,0,0,1,.219-.1,3.183,3.183,0,0,1,.386-.075c.077-.023.115-.088.115-.2,0-.023,0-.058-.006-.1a1.016,1.016,0,0,0-.017-.126q-.369.023-.783.04t-.738.017q-.334,0-.755-.017t-.79-.04a.341.341,0,0,0-.023.126v.1c0,.107.039.172.116.2a3.212,3.212,0,0,1,.386.075.592.592,0,0,1,.213.1.281.281,0,0,1,.092.132.672.672,0,0,1,.023.19V160.2H62.005v-2.455a.874.874,0,0,1,.017-.19.231.231,0,0,1,.092-.132.646.646,0,0,1,.219-.1,3.183,3.183,0,0,1,.386-.075c.077-.023.115-.088.115-.2,0-.023,0-.058-.006-.1a1.016,1.016,0,0,0-.017-.126q-.369.023-.795.04t-.75.017q-.322,0-.737-.017t-.784-.04a.341.341,0,0,0-.023.126v.1c0,.107.039.172.116.2a3.212,3.212,0,0,1,.386.075.592.592,0,0,1,.213.1.281.281,0,0,1,.092.132.672.672,0,0,1,.023.19v5.774a.672.672,0,0,1-.023.19.281.281,0,0,1-.092.132.582.582,0,0,1-.213.1,3.189,3.189,0,0,1-.386.075c-.077.007-.116.073-.116.2v.1a.26.26,0,0,0,.023.115c.246-.016.507-.029.784-.04s.522-.017.737-.017.465.006.75.017.549.024.795.04a.688.688,0,0,0,.017-.115c0-.047.006-.081.006-.1,0-.115-.038-.18-.115-.2a3.161,3.161,0,0,1-.386-.075.634.634,0,0,1-.219-.1.232.232,0,0,1-.092-.132.874.874,0,0,1-.017-.19V160.81h3.112v2.708a.672.672,0,0,1-.023.19.282.282,0,0,1-.092.132.581.581,0,0,1-.213.1,3.189,3.189,0,0,1-.386.075c-.077.007-.116.073-.116.2v.1a.26.26,0,0,0,.023.115c.246-.016.509-.029.79-.04s.532-.017.755-.017.461.006.738.017.538.024.783.04a.688.688,0,0,0,.017-.115c0-.047.006-.081.006-.1,0-.115-.038-.18-.115-.2a3.161,3.161,0,0,1-.386-.075.64.64,0,0,1-.219-.1.232.232,0,0,1-.092-.132.874.874,0,0,1-.017-.19Zm-11.2,6.719a11.342,11.342,0,0,0,1.153-.149q.045-.243.109-.5c.042-.173.091-.346.144-.519s.1-.341.155-.507.1-.313.144-.443a.88.88,0,0,0-.144-.04.761.761,0,0,0-.144-.017.329.329,0,0,0-.156.04.238.238,0,0,0-.109.132,3.928,3.928,0,0,1-.305.646,1.53,1.53,0,0,1-.968.72,3.146,3.146,0,0,1-.79.086,2.146,2.146,0,0,1-1.048-.265,2.579,2.579,0,0,1-.836-.737,3.705,3.705,0,0,1-.553-1.118,4.65,4.65,0,0,1-.2-1.394,4.41,4.41,0,0,1,.167-1.263,2.754,2.754,0,0,1,.489-.956,2.139,2.139,0,0,1,.8-.611,2.689,2.689,0,0,1,1.1-.213,3.16,3.16,0,0,1,.7.069,1.5,1.5,0,0,1,.525.225,1.385,1.385,0,0,1,.386.415,3.015,3.015,0,0,1,.288.64.163.163,0,0,0,.086.121.373.373,0,0,0,.156.029.844.844,0,0,0,.138-.018l.15-.029a7.545,7.545,0,0,1-.2-.945q-.069-.484-.092-.795a10.664,10.664,0,0,0-1.112-.242,7.073,7.073,0,0,0-1.1-.08,4.428,4.428,0,0,0-1.845.351,3.728,3.728,0,0,0-1.268.91,3.563,3.563,0,0,0-.726,1.25,4.313,4.313,0,0,0-.231,1.371,4.8,4.8,0,0,0,.236,1.527,3.441,3.441,0,0,0,.709,1.233,3.253,3.253,0,0,0,1.2.824,4.421,4.421,0,0,0,1.694.3q.7,0,1.291-.046" transform="translate(-17538.137 -21230.945)" fill="#fff"/>
  </g>
</svg>
